<?xml version="1.0" encoding="UTF-8"?>
<!DOCTYPE svg PUBLIC "-//W3C//DTD SVG 1.1//EN" "http://www.w3.org/Graphics/SVG/1.1/DTD/svg11.dtd">
<svg xmlns="http://www.w3.org/2000/svg" version="1.1" width="826px" height="654px" style="shape-rendering:geometricPrecision; text-rendering:geometricPrecision; image-rendering:optimizeQuality; fill-rule:evenodd; clip-rule:evenodd" xmlns:xlink="http://www.w3.org/1999/xlink">
<g><path style="opacity:1" fill="#fedc58" d="M 778.5,48.5 C 780.379,48.3932 780.712,48.8932 779.5,50C 652.55,97.0944 525.383,143.594 398,189.5C 294.924,164.964 192.091,139.964 89.5,114.5C 199.811,76.5073 310.144,38.5073 420.5,0.5C 539.855,16.408 659.189,32.408 778.5,48.5 Z"/></g>
<g><path style="opacity:0.992" fill="#e1d7b8" d="M 417.5,-0.5 C 420.5,-0.5 423.5,-0.5 426.5,-0.5C 545.613,15.9735 664.947,31.8068 784.5,47C 786.751,47.7475 788.084,49.2475 788.5,51.5C 786.99,50.1639 785.323,48.9973 783.5,48C 781.613,47.2204 779.946,47.3871 778.5,48.5C 659.189,32.408 539.855,16.408 420.5,0.5C 310.144,38.5073 199.811,76.5073 89.5,114.5C 87.7085,114.634 86.0418,114.301 84.5,113.5C 93.0736,111.823 101.74,109.323 110.5,106C 213.13,70.9584 315.463,35.4584 417.5,-0.5 Z"/></g>
<g><path style="opacity:1" fill="#fed630" d="M 778.5,48.5 C 779.946,47.3871 781.613,47.2204 783.5,48C 785.323,48.9973 786.99,50.1639 788.5,51.5C 791.113,55.3351 790.78,59.0018 787.5,62.5C 783.948,63.7911 780.614,65.4578 777.5,67.5C 652.502,113.185 527.502,159.352 402.5,206C 399.5,206.667 396.5,206.667 393.5,206C 293.055,181.597 192.555,157.43 92,133.5C 86.4463,138.244 82.613,144.244 80.5,151.5C 71.641,177.988 73.641,203.821 86.5,229C 189.4,254.642 292.4,279.808 395.5,304.5C 397.905,305.768 400.572,306.435 403.5,306.5C 527.914,259.972 652.248,213.138 776.5,166C 779.221,165.398 781.887,165.565 784.5,166.5C 787.37,168.239 788.703,170.905 788.5,174.5C 788.807,177.488 787.807,179.821 785.5,181.5C 780.117,182.734 775.117,184.734 770.5,187.5C 769.791,188.404 768.791,188.737 767.5,188.5C 758.378,190.87 749.711,194.204 741.5,198.5C 733.874,202.267 725.874,205.267 717.5,207.5C 708.59,209.685 700.257,213.019 692.5,217.5C 598.282,251.963 504.282,287.13 410.5,323C 408.256,323.906 405.923,324.406 403.5,324.5C 310.419,302.085 217.419,279.418 124.5,256.5C 117.241,254.519 109.907,252.852 102.5,251.5C 97.1067,250.818 91.7734,249.818 86.5,248.5C 84.081,246.138 81.081,245.138 77.5,245.5C 76.7095,244.599 75.7095,243.932 74.5,243.5C 73.2257,239.273 71.2257,235.606 68.5,232.5C 66.7069,228.333 65.3736,224 64.5,219.5C 59.1514,198.381 58.1514,177.048 61.5,155.5C 61.32,151.714 62.32,148.381 64.5,145.5C 66.7943,142.63 68.1277,139.297 68.5,135.5C 71.9314,126.742 77.2647,119.409 84.5,113.5C 86.0418,114.301 87.7085,114.634 89.5,114.5C 192.091,139.964 294.924,164.964 398,189.5C 525.383,143.594 652.55,97.0944 779.5,50C 780.712,48.8932 780.379,48.3932 778.5,48.5 Z"/></g>
<g><path style="opacity:0.122" fill="#b6ac8b" d="M 787.5,62.5 C 785.008,65.6747 781.674,67.3414 777.5,67.5C 780.614,65.4578 783.948,63.7911 787.5,62.5 Z"/></g>
<g><path style="opacity:1" fill="#e6d8b7" d="M 777.5,67.5 C 773.505,73.0928 771.172,79.4262 770.5,86.5C 645.691,132.436 521.025,178.77 396.5,225.5C 395.749,226.376 395.249,227.376 395,228.5C 393.892,254.967 396.726,280.967 403.5,306.5C 400.572,306.435 397.905,305.768 395.5,304.5C 396.833,304.5 398.167,304.5 399.5,304.5C 392.968,278.592 390.301,252.258 391.5,225.5C 288.405,200.643 185.405,175.643 82.5,150.5C 81.8165,150.863 81.1499,151.196 80.5,151.5C 82.613,144.244 86.4463,138.244 92,133.5C 192.555,157.43 293.055,181.597 393.5,206C 396.5,206.667 399.5,206.667 402.5,206C 527.502,159.352 652.502,113.185 777.5,67.5 Z"/></g>
<g><path style="opacity:1" fill="#f4ecd6" d="M 770.5,86.5 C 765.546,112.645 767.546,138.311 776.5,163.5C 778.766,164.314 781.1,164.814 783.5,165C 784.056,165.383 784.389,165.883 784.5,166.5C 781.887,165.565 779.221,165.398 776.5,166C 652.248,213.138 527.914,259.972 403.5,306.5C 396.726,280.967 393.892,254.967 395,228.5C 395.249,227.376 395.749,226.376 396.5,225.5C 521.025,178.77 645.691,132.436 770.5,86.5 Z"/></g>
<g><path style="opacity:0.906" fill="#dfd5b8" d="M 68.5,135.5 C 68.1277,139.297 66.7943,142.63 64.5,145.5C 64.8723,141.703 66.2057,138.37 68.5,135.5 Z"/></g>
<g><path style="opacity:1" fill="#f4ecd6" d="M 395.5,304.5 C 292.4,279.808 189.4,254.642 86.5,229C 73.641,203.821 71.641,177.988 80.5,151.5C 81.1499,151.196 81.8165,150.863 82.5,150.5C 185.405,175.643 288.405,200.643 391.5,225.5C 390.301,252.258 392.968,278.592 399.5,304.5C 398.167,304.5 396.833,304.5 395.5,304.5 Z"/></g>
<g><path style="opacity:0.878" fill="#ded4b6" d="M 785.5,181.5 C 781.136,184.84 776.136,186.84 770.5,187.5C 775.117,184.734 780.117,182.734 785.5,181.5 Z"/></g>
<g><path style="opacity:0.851" fill="#e1d6b3" d="M 61.5,155.5 C 58.1514,177.048 59.1514,198.381 64.5,219.5C 56.6271,198.46 55.6271,177.126 61.5,155.5 Z"/></g>
<g><path style="opacity:0.91" fill="#dcd2b4" d="M 767.5,188.5 C 759.334,192.908 750.667,196.241 741.5,198.5C 749.711,194.204 758.378,190.87 767.5,188.5 Z"/></g>
<g><path style="opacity:0.922" fill="#d3d0b0" d="M 717.5,207.5 C 711.057,210.601 704.39,213.434 697.5,216C 698.905,217.269 700.571,217.769 702.5,217.5C 699.332,218.444 695.999,218.444 692.5,217.5C 700.257,213.019 708.59,209.685 717.5,207.5 Z"/></g>
<g><path style="opacity:1" fill="#67c473" d="M 692.5,217.5 C 695.999,218.444 699.332,218.444 702.5,217.5C 716.113,220.112 729.78,222.445 743.5,224.5C 745.279,226.344 747.612,227.01 750.5,226.5C 754.198,226.552 757.865,226.886 761.5,227.5C 762.918,229.308 764.918,229.975 767.5,229.5C 771.548,229.395 775.548,229.728 779.5,230.5C 618.546,284.262 457.212,337.262 295.5,389.5C 207.765,353.928 120.432,317.594 33.5,280.5C 36.8112,280.117 39.8112,279.117 42.5,277.5C 47.1906,275.409 52.1906,274.076 57.5,273.5C 59.5273,273.662 61.5273,273.495 63.5,273C 64.056,272.617 64.3893,272.117 64.5,271.5C 67.698,270.213 71.0314,269.547 74.5,269.5C 78.553,268.987 82.553,268.154 86.5,267C 87.056,266.617 87.3893,266.117 87.5,265.5C 92.0468,263.99 96.7134,262.99 101.5,262.5C 105.286,262.68 108.619,261.68 111.5,259.5C 111.833,259.5 112.167,259.5 112.5,259.5C 115.553,259.889 118.22,259.223 120.5,257.5C 120.833,257.5 121.167,257.5 121.5,257.5C 122.791,257.737 123.791,257.404 124.5,256.5C 217.419,279.418 310.419,302.085 403.5,324.5C 405.923,324.406 408.256,323.906 410.5,323C 504.282,287.13 598.282,251.963 692.5,217.5 Z"/></g>
<g><path style="opacity:0.922" fill="#bccaaa" d="M 743.5,224.5 C 746.01,224.927 748.343,225.593 750.5,226.5C 747.612,227.01 745.279,226.344 743.5,224.5 Z"/></g>
<g><path style="opacity:0.976" fill="#c1ccad" d="M 761.5,227.5 C 763.698,227.875 765.698,228.542 767.5,229.5C 764.918,229.975 762.918,229.308 761.5,227.5 Z"/></g>
<g><path style="opacity:1" fill="#06af51" d="M 779.5,230.5 C 787.476,232.442 790.309,237.442 788,245.5C 784.811,249.508 780.645,251.508 775.5,251.5C 614.66,302.891 453.993,354.891 293.5,407.5C 207.707,372.069 121.874,336.736 36,301.5C 28.9816,308.054 24.1482,316.054 21.5,325.5C 12.2338,355.919 17.9005,383.419 38.5,408C 121.994,440.997 205.66,473.497 289.5,505.5C 290.833,506.167 292.167,506.833 293.5,507.5C 304.342,505.054 315.009,501.887 325.5,498C 475.969,445.901 626.302,393.734 776.5,341.5C 779.754,341.207 782.754,341.874 785.5,343.5C 788.615,348.864 787.948,353.697 783.5,358C 775.358,360.547 767.358,363.38 759.5,366.5C 745.936,370.577 732.603,375.243 719.5,380.5C 705.679,384.773 692.013,389.44 678.5,394.5C 584.942,426.463 491.609,458.796 398.5,491.5C 386.121,495.068 374.121,499.402 362.5,504.5C 340.54,510.981 318.873,518.314 297.5,526.5C 295.139,526.326 292.806,525.993 290.5,525.5C 250.796,508.527 210.463,492.861 169.5,478.5C 146.237,468.377 122.57,459.043 98.5,450.5C 90.132,446.596 81.4654,443.263 72.5,440.5C 58.0779,435.303 43.7445,429.803 29.5,424C 28.6195,423.292 27.9528,422.458 27.5,421.5C 27.2624,419.596 26.2624,418.262 24.5,417.5C 23.5,417.167 22.8333,416.5 22.5,415.5C 22.573,413.973 21.9063,412.973 20.5,412.5C 20.573,410.973 19.9063,409.973 18.5,409.5C 18.573,407.973 17.9063,406.973 16.5,406.5C 16.2503,404.326 15.2503,402.659 13.5,401.5C 11.659,399.151 10.3257,396.485 9.5,393.5C 9.59794,391.447 8.93127,389.78 7.5,388.5C 7.26708,385.458 6.26708,382.792 4.5,380.5C 3.56552,379.432 3.23219,378.099 3.5,376.5C 3.78472,373.171 3.11805,370.171 1.5,367.5C 1.5,367.167 1.5,366.833 1.5,366.5C 1.49872,360.484 1.16539,354.484 0.5,348.5C 1.38647,341.85 2.05314,335.183 2.5,328.5C 5.13952,323.915 6.80618,318.915 7.5,313.5C 8.65893,309.849 10.3256,306.515 12.5,303.5C 14.4077,302.514 15.4077,300.848 15.5,298.5C 17.369,296.966 18.7023,294.966 19.5,292.5C 20.9063,292.027 21.573,291.027 21.5,289.5C 23.5869,288.415 24.9202,286.749 25.5,284.5C 27.914,283.089 29.5806,281.089 30.5,278.5C 31.1667,278.5 31.5,278.833 31.5,279.5C 31.8417,280.338 32.5084,280.672 33.5,280.5C 120.432,317.594 207.765,353.928 295.5,389.5C 457.212,337.262 618.546,284.262 779.5,230.5 Z"/></g>
<g><path style="opacity:0.988" fill="#e4dbbb" d="M 68.5,232.5 C 71.2257,235.606 73.2257,239.273 74.5,243.5C 71.7396,240.317 69.7396,236.651 68.5,232.5 Z"/></g>
<g><path style="opacity:0.231" fill="#d7ccad" d="M 74.5,243.5 C 75.7095,243.932 76.7095,244.599 77.5,245.5C 75.8212,245.715 74.8212,245.048 74.5,243.5 Z"/></g>
<g><path style="opacity:0.976" fill="#e2d8b7" d="M 77.5,245.5 C 81.081,245.138 84.081,246.138 86.5,248.5C 83.2542,247.946 80.2542,246.946 77.5,245.5 Z"/></g>
<g><path style="opacity:1" fill="#e5d8b8" d="M 775.5,251.5 C 774.156,258.556 772.489,265.556 770.5,272.5C 770.5,272.833 770.5,273.167 770.5,273.5C 769.883,273.389 769.383,273.056 769,272.5C 608.394,327.257 447.561,381.424 286.5,435C 286,435.5 285.5,436 285,436.5C 284.046,460.649 286.879,484.316 293.5,507.5C 292.167,506.833 290.833,506.167 289.5,505.5C 282.912,482.635 280.246,459.302 281.5,435.5C 194.915,398.638 108.248,361.972 21.5,325.5C 24.1482,316.054 28.9816,308.054 36,301.5C 121.874,336.736 207.707,372.069 293.5,407.5C 453.993,354.891 614.66,302.891 775.5,251.5 Z"/></g>
<g><path style="opacity:0.849" fill="#dcd3b3" d="M 102.5,251.5 C 109.907,252.852 117.241,254.519 124.5,256.5C 123.791,257.404 122.791,257.737 121.5,257.5C 115.089,255.751 108.755,253.751 102.5,251.5 Z"/></g>
<g><path style="opacity:0.992" fill="#bdc4a9" d="M 120.5,257.5 C 118.22,259.223 115.553,259.889 112.5,259.5C 114.905,258.232 117.572,257.565 120.5,257.5 Z"/></g>
<g><path style="opacity:0.976" fill="#bebfa8" d="M 111.5,259.5 C 108.619,261.68 105.286,262.68 101.5,262.5C 104.55,260.899 107.884,259.899 111.5,259.5 Z"/></g>
<g><path style="opacity:0.945" fill="#b2baa0" d="M 87.5,265.5 C 87.3893,266.117 87.056,266.617 86.5,267C 82.553,268.154 78.553,268.987 74.5,269.5C 78.509,267.422 82.8423,266.089 87.5,265.5 Z"/></g>
<g><path style="opacity:0.992" fill="#bfbfa9" d="M 64.5,271.5 C 64.3893,272.117 64.056,272.617 63.5,273C 61.5273,273.495 59.5273,273.662 57.5,273.5C 59.5994,272.388 61.9327,271.721 64.5,271.5 Z"/></g>
<g><path style="opacity:0.996" fill="#2c85cf" d="M 770.5,272.5 C 782.18,273.279 793.846,274.279 805.5,275.5C 808.229,275.705 810.562,274.872 812.5,273C 819.329,271.409 823.663,273.909 825.5,280.5C 825.5,281.5 825.5,282.5 825.5,283.5C 822.362,289.777 817.696,294.777 811.5,298.5C 798.833,309.5 786.167,320.5 773.5,331.5C 771.858,325.955 770.858,320.289 770.5,314.5C 771.091,311.386 772.758,308.886 775.5,307C 786.833,297 798.167,287 809.5,277C 796.545,275.427 783.545,274.593 770.5,274.5C 770.5,274.167 770.5,273.833 770.5,273.5C 770.5,273.167 770.5,272.833 770.5,272.5 Z"/></g>
<g><path style="opacity:1" fill="#f4ecd6" d="M 770.5,273.5 C 770.5,273.833 770.5,274.167 770.5,274.5C 767.924,287.975 767.924,301.309 770.5,314.5C 770.858,320.289 771.858,325.955 773.5,331.5C 774.808,334.73 775.808,338.064 776.5,341.5C 626.302,393.734 475.969,445.901 325.5,498C 315.009,501.887 304.342,505.054 293.5,507.5C 286.879,484.316 284.046,460.649 285,436.5C 285.5,436 286,435.5 286.5,435C 447.561,381.424 608.394,327.257 769,272.5C 769.383,273.056 769.883,273.389 770.5,273.5 Z"/></g>
<g><path style="opacity:1" fill="#6aace1" d="M 770.5,274.5 C 783.545,274.593 796.545,275.427 809.5,277C 798.167,287 786.833,297 775.5,307C 772.758,308.886 771.091,311.386 770.5,314.5C 767.924,301.309 767.924,287.975 770.5,274.5 Z"/></g>
<g><path style="opacity:0.937" fill="#b5bda3" d="M 42.5,277.5 C 39.8112,279.117 36.8112,280.117 33.5,280.5C 32.5084,280.672 31.8417,280.338 31.5,279.5C 35.0712,278.358 38.7379,277.691 42.5,277.5 Z"/></g>
<g><path style="opacity:0.745" fill="#50755f" d="M 30.5,278.5 C 29.5806,281.089 27.914,283.089 25.5,284.5C 26.4194,281.911 28.086,279.911 30.5,278.5 Z"/></g>
<g><path style="opacity:0.588" fill="#557160" d="M 25.5,284.5 C 24.9202,286.749 23.5869,288.415 21.5,289.5C 22.0798,287.251 23.4131,285.585 25.5,284.5 Z"/></g>
<g><path style="opacity:0.745" fill="#537561" d="M 21.5,289.5 C 21.573,291.027 20.9063,292.027 19.5,292.5C 19.427,290.973 20.0937,289.973 21.5,289.5 Z"/></g>
<g><path style="opacity:1" fill="#47855c" d="M 19.5,292.5 C 18.7023,294.966 17.369,296.966 15.5,298.5C 15.8449,295.802 17.1782,293.802 19.5,292.5 Z"/></g>
<g><path style="opacity:0.99" fill="#e4d6b7" d="M 811.5,298.5 C 808.863,307.687 806.863,317.02 805.5,326.5C 798.833,332.167 792.167,337.833 785.5,343.5C 782.754,341.874 779.754,341.207 776.5,341.5C 775.808,338.064 774.808,334.73 773.5,331.5C 786.167,320.5 798.833,309.5 811.5,298.5 Z"/></g>
<g><path style="opacity:1" fill="#4a845c" d="M 15.5,298.5 C 15.4077,300.848 14.4077,302.514 12.5,303.5C 12.7497,301.326 13.7497,299.659 15.5,298.5 Z"/></g>
<g><path style="opacity:1" fill="#507c5f" d="M 7.5,313.5 C 6.80618,318.915 5.13952,323.915 2.5,328.5C 3.19382,323.085 4.86048,318.085 7.5,313.5 Z"/></g>
<g><path style="opacity:1" fill="#f4ecd6" d="M 21.5,325.5 C 108.248,361.972 194.915,398.638 281.5,435.5C 280.246,459.302 282.912,482.635 289.5,505.5C 205.66,473.497 121.994,440.997 38.5,408C 17.9005,383.419 12.2338,355.919 21.5,325.5 Z"/></g>
<g><path style="opacity:1" fill="#f4ecd6" d="M 805.5,326.5 C 803.57,342.33 804.403,357.997 808,373.5C 808.881,376.647 810.047,379.647 811.5,382.5C 811.611,383.117 811.944,383.617 812.5,384C 725.631,467.037 638.631,549.871 551.5,632.5C 547.543,623.708 545.376,614.374 545,604.5C 543.84,590.336 544.84,576.336 548,562.5C 615.867,499.631 684.033,437.131 752.5,375C 755.447,372.564 757.78,369.731 759.5,366.5C 767.358,363.38 775.358,360.547 783.5,358C 787.948,353.697 788.615,348.864 785.5,343.5C 792.167,337.833 798.833,332.167 805.5,326.5 Z"/></g>
<g><path style="opacity:0.961" fill="#7e8b7b" d="M 2.5,328.5 C 2.05314,335.183 1.38647,341.85 0.5,348.5C 1.16539,354.484 1.49872,360.484 1.5,366.5C 0.833333,365.167 0.166667,363.833 -0.5,362.5C -0.5,355.167 -0.5,347.833 -0.5,340.5C 0.315794,336.461 1.31579,332.461 2.5,328.5 Z"/></g>
<g><path style="opacity:1" fill="#e5d8b8" d="M 759.5,366.5 C 757.78,369.731 755.447,372.564 752.5,375C 684.033,437.131 615.867,499.631 548,562.5C 544.84,576.336 543.84,590.336 545,604.5C 545.376,614.374 547.543,623.708 551.5,632.5C 550.713,634.104 549.38,634.771 547.5,634.5C 544.585,626.425 542.751,618.092 542,609.5C 541.039,593.765 541.539,578.098 543.5,562.5C 466.772,552.212 390.105,541.379 313.5,530C 307.919,529.315 302.586,528.148 297.5,526.5C 318.873,518.314 340.54,510.981 362.5,504.5C 426.778,513.707 491.111,522.207 555.5,530C 610.662,480.67 665.328,430.837 719.5,380.5C 732.603,375.243 745.936,370.577 759.5,366.5 Z"/></g>
<g><path style="opacity:0.437" fill="#5e6a62" d="M 1.5,367.5 C 3.11805,370.171 3.78472,373.171 3.5,376.5C 2.08699,373.781 1.42032,370.781 1.5,367.5 Z"/></g>
<g><path style="opacity:1" fill="#2c85cf" d="M 719.5,380.5 C 665.328,430.837 610.662,480.67 555.5,530C 491.111,522.207 426.778,513.707 362.5,504.5C 374.121,499.402 386.121,495.068 398.5,491.5C 443.498,497.456 488.498,503.622 533.5,510C 539.175,510.699 544.842,511.032 550.5,511C 593.362,472.301 636.029,433.468 678.5,394.5C 692.013,389.44 705.679,384.773 719.5,380.5 Z"/></g>
<g><path style="opacity:0.997" fill="#2b84cf" d="M 825.5,390.5 C 825.5,391.833 825.5,393.167 825.5,394.5C 822.134,399.377 818.134,403.877 813.5,408C 727.635,489.7 641.968,571.533 556.5,653.5C 554.167,653.5 551.833,653.5 549.5,653.5C 516.328,647.638 482.994,641.971 449.5,636.5C 446.727,635.343 443.727,634.676 440.5,634.5C 405.128,629.049 369.795,623.383 334.5,617.5C 327.482,615.106 320.149,613.773 312.5,613.5C 269.094,606.599 225.76,599.266 182.5,591.5C 178.574,590.448 174.574,589.782 170.5,589.5C 134.773,584.101 99.1066,578.268 63.5,572C 55.3731,563.601 49.3731,553.768 45.5,542.5C 44.4074,537.222 42.7408,532.222 40.5,527.5C 39.5489,526.081 39.2155,524.415 39.5,522.5C 39.5,514.167 39.5,505.833 39.5,497.5C 39.5,495.833 39.5,494.167 39.5,492.5C 40.3686,490.283 40.702,487.95 40.5,485.5C 42.5569,480.998 44.2235,476.331 45.5,471.5C 45.2291,469.62 45.8958,468.287 47.5,467.5C 52.5793,460.359 57.9126,453.359 63.5,446.5C 75.1667,447.833 86.8333,449.167 98.5,450.5C 122.57,459.043 146.237,468.377 169.5,478.5C 136.199,473.814 102.865,469.647 69.5,466C 62.918,473.33 58.5847,481.83 56.5,491.5C 52.2464,514.662 57.2464,535.828 71.5,555C 230.157,581.609 388.823,608.109 547.5,634.5C 549.38,634.771 550.713,634.104 551.5,632.5C 638.631,549.871 725.631,467.037 812.5,384C 811.944,383.617 811.611,383.117 811.5,382.5C 818.841,380.51 823.508,383.177 825.5,390.5 Z"/></g>
<g><path style="opacity:0.706" fill="#5a6c62" d="M 4.5,380.5 C 6.26708,382.792 7.26708,385.458 7.5,388.5C 5.73292,386.208 4.73292,383.542 4.5,380.5 Z"/></g>
<g><path style="opacity:0.647" fill="#5b6d62" d="M 7.5,388.5 C 8.93127,389.78 9.59794,391.447 9.5,393.5C 8.06873,392.22 7.40206,390.553 7.5,388.5 Z"/></g>
<g><path style="opacity:1" fill="#69abe1" d="M 678.5,394.5 C 636.029,433.468 593.362,472.301 550.5,511C 544.842,511.032 539.175,510.699 533.5,510C 488.498,503.622 443.498,497.456 398.5,491.5C 491.609,458.796 584.942,426.463 678.5,394.5 Z"/></g>
<g><path style="opacity:0.063" fill="#5d6761" d="M 13.5,401.5 C 15.2503,402.659 16.2503,404.326 16.5,406.5C 14.7497,405.341 13.7497,403.674 13.5,401.5 Z"/></g>
<g><path style="opacity:0.063" fill="#5b6a61" d="M 16.5,406.5 C 17.9063,406.973 18.573,407.973 18.5,409.5C 17.0937,409.027 16.427,408.027 16.5,406.5 Z"/></g>
<g><path style="opacity:0.063" fill="#5b6961" d="M 18.5,409.5 C 19.9063,409.973 20.573,410.973 20.5,412.5C 19.0937,412.027 18.427,411.027 18.5,409.5 Z"/></g>
<g><path style="opacity:0.063" fill="#5c6961" d="M 20.5,412.5 C 21.9063,412.973 22.573,413.973 22.5,415.5C 21.0937,415.027 20.427,414.027 20.5,412.5 Z"/></g>
<g><path style="opacity:0.063" fill="#586d60" d="M 24.5,417.5 C 26.2624,418.262 27.2624,419.596 27.5,421.5C 25.7376,420.738 24.7376,419.404 24.5,417.5 Z"/></g>
<g><path style="opacity:1" fill="#62a3d7" d="M 72.5,440.5 C 81.4654,443.263 90.132,446.596 98.5,450.5C 86.8333,449.167 75.1667,447.833 63.5,446.5C 66.672,444.748 69.672,442.748 72.5,440.5 Z"/></g>
<g><path style="opacity:0.847" fill="#5c6c7c" d="M 63.5,446.5 C 57.9126,453.359 52.5793,460.359 47.5,467.5C 51.1384,460.017 55.805,453.184 61.5,447C 62.0944,446.536 62.7611,446.369 63.5,446.5 Z"/></g>
<g><path style="opacity:1" fill="#e5d7b8" d="M 169.5,478.5 C 210.463,492.861 250.796,508.527 290.5,525.5C 286.818,525.665 283.152,525.499 279.5,525C 231.185,517.854 182.852,510.854 134.5,504C 108.297,500.147 82.2974,495.98 56.5,491.5C 58.5847,481.83 62.918,473.33 69.5,466C 102.865,469.647 136.199,473.814 169.5,478.5 Z"/></g>
<g><path style="opacity:0.469" fill="#60686f" d="M 45.5,471.5 C 44.2235,476.331 42.5569,480.998 40.5,485.5C 40.999,480.331 42.6657,475.664 45.5,471.5 Z"/></g>
<g><path style="opacity:1" fill="#5d6a78" d="M 40.5,485.5 C 40.702,487.95 40.3686,490.283 39.5,492.5C 39.1667,492.5 38.8333,492.5 38.5,492.5C 38.9267,489.99 39.5933,487.657 40.5,485.5 Z"/></g>
<g><path style="opacity:1" fill="#f4ecd6" d="M 56.5,491.5 C 82.2974,495.98 108.297,500.147 134.5,504C 182.852,510.854 231.185,517.854 279.5,525C 283.152,525.499 286.818,525.665 290.5,525.5C 292.806,525.993 295.139,526.326 297.5,526.5C 302.586,528.148 307.919,529.315 313.5,530C 390.105,541.379 466.772,552.212 543.5,562.5C 541.539,578.098 541.039,593.765 542,609.5C 542.751,618.092 544.585,626.425 547.5,634.5C 388.823,608.109 230.157,581.609 71.5,555C 57.2464,535.828 52.2464,514.662 56.5,491.5 Z"/></g>
<g><path style="opacity:0.886" fill="#c6c0ad" d="M 38.5,492.5 C 38.8333,492.5 39.1667,492.5 39.5,492.5C 39.5,494.167 39.5,495.833 39.5,497.5C 38.8333,501.5 38.1667,505.5 37.5,509.5C 37.2598,503.773 37.5931,498.106 38.5,492.5 Z"/></g>
<g><path style="opacity:1" fill="#517293" d="M 39.5,497.5 C 39.5,505.833 39.5,514.167 39.5,522.5C 38.2911,518.382 37.6245,514.049 37.5,509.5C 38.1667,505.5 38.8333,501.5 39.5,497.5 Z"/></g>
<g><path style="opacity:0.376" fill="#5e6771" d="M 40.5,527.5 C 42.7408,532.222 44.4074,537.222 45.5,542.5C 42.8605,537.915 41.1938,532.915 40.5,527.5 Z"/></g>
<g><path style="opacity:0.677" fill="#d9d6c3" d="M 170.5,589.5 C 174.574,589.782 178.574,590.448 182.5,591.5C 182.265,592.097 181.765,592.43 181,592.5C 177.243,591.971 173.743,590.971 170.5,589.5 Z"/></g>
<g><path style="opacity:0.573" fill="#e3dbc5" d="M 312.5,613.5 C 320.149,613.773 327.482,615.106 334.5,617.5C 326.927,616.795 319.593,615.462 312.5,613.5 Z"/></g>
<g><path style="opacity:0.612" fill="#e9dfc7" d="M 440.5,634.5 C 443.727,634.676 446.727,635.343 449.5,636.5C 446.171,636.785 443.171,636.118 440.5,634.5 Z"/></g>
</svg>
